<svg version="1.1" id="Layer_1" xmlns="http://www.w3.org/2000/svg" xmlns:xlink="http://www.w3.org/1999/xlink" x="0px" y="0px"
	 width="456" height="456" viewBox="0 0 456 456" enable-background="new 0 0 456 456" xml:space="preserve">
<path fill="#D15656" opacity="1.000000" stroke="none" 
	d="
M254.404114,75.540009 
	C329.636688,88.297508 380.262787,151.390182 383.784973,219.739487 
	C367.215271,219.739487 350.659943,219.739487 334.438538,219.739487 
	C323.936493,160.832565 289.073730,128.564362 229.346039,122.669365 
	C229.346039,106.726364 229.346039,90.639626 229.346039,73.215897 
	C237.670456,73.965462 245.826416,74.699852 254.404114,75.540009 
z"/>
<path fill="#D05656" opacity="1.000000" stroke="none" 
	d="
M367.695953,298.660675 
	C351.089661,330.631531 326.881195,354.272888 294.641724,369.556580 
	C276.708069,378.058380 257.736847,382.581177 237.555328,383.926483 
	C237.555328,367.268829 237.555328,350.864502 237.555328,333.791870 
	C262.845032,331.345459 285.041077,321.300842 303.163147,303.114258 
	C321.174286,285.039001 331.359619,263.068726 333.726654,237.429749 
	C350.540741,237.429749 366.957672,237.429749 383.861298,237.429749 
	C382.701324,259.020599 377.162598,279.155182 367.695953,298.660675 
z"/>
<path fill="#D05656" opacity="1.000000" stroke="none" 
	d="
M219.925461,344.045441 
	C219.925461,357.502594 219.925461,370.466583 219.925461,383.438324 
	C140.539642,381.248322 74.994171,310.843262 74.429298,237.444580 
	C90.700150,237.444580 106.970741,237.444580 123.223885,237.444580 
	C132.186691,292.780579 164.276337,324.996521 219.925461,334.363251 
	C219.925461,337.269562 219.925461,340.410919 219.925461,344.045441 
z"/>
<path fill="#D05656" opacity="1.000000" stroke="none" 
	d="
M181.001526,165.781158 
	C199.119339,165.781158 216.737579,165.781158 234.228622,165.781158 
	C236.453506,175.989685 236.269852,176.421341 227.903778,181.492188 
	C223.069656,184.422272 222.675903,186.031326 226.057022,190.576004 
	C246.230011,217.691147 266.421021,244.792984 286.688019,271.837799 
	C287.941864,273.510956 289.718872,274.975616 291.552917,275.998718 
	C299.561554,280.466187 299.923737,281.111847 297.989685,291.170959 
	C273.010162,291.170959 247.932983,291.170959 222.854248,291.177002 
	C220.539841,282.376617 221.702957,279.181244 228.942551,274.452423 
	C235.137146,270.406219 235.221191,269.978271 231.051575,264.068054 
	C212.816635,238.221069 194.620071,212.346756 176.289459,186.567780 
	C174.605728,184.199905 172.318924,182.057602 169.883743,180.466095 
	C163.056808,176.004349 162.451920,174.984283 163.882950,165.781158 
	C169.327637,165.781158 174.914795,165.781158 181.001526,165.781158 
z"/>
<path fill="#D15656" opacity="1.000000" stroke="none" 
	d="
M95.000122,220.127197 
	C87.869194,220.127197 81.238243,220.127197 73.815842,220.127197 
	C75.110771,196.061020 81.502594,173.973480 93.221481,152.677261 
	C108.001007,160.616455 122.523651,168.417648 137.008240,176.198410 
	C133.986755,183.570801 130.643188,190.434906 128.372299,197.637207 
	C126.139008,204.720306 124.994194,212.146622 123.214577,220.127197 
	C114.369392,220.127197 104.934738,220.127197 95.000122,220.127197 
z"/>
<path fill="#CC5555" opacity="1.000000" stroke="none" 
	d="
M197.641296,277.391113 
	C203.631165,280.433960 205.561508,284.977417 204.225296,291.385406 
	C189.315994,291.385406 174.569168,291.385406 159.875717,291.385406 
	C157.567764,282.517365 158.811661,280.342529 166.691376,276.415466 
	C170.023956,274.754639 173.096695,272.248016 175.733810,269.578735 
	C182.847427,262.378357 189.663467,254.883957 196.995270,247.083115 
	C200.051666,250.687271 202.812042,253.942352 205.995285,257.696075 
	C202.747681,261.272003 199.535339,264.780426 196.355179,268.317749 
	C191.922913,273.247742 191.933212,273.257019 197.641296,277.391113 
z"/>
<path fill="#CB5454" opacity="1.000000" stroke="none" 
	d="
M251.180801,173.228607 
	C251.111877,170.673141 251.111877,168.521622 251.111877,165.842621 
	C266.688965,165.842621 282.017670,165.842621 297.326385,165.842621 
	C298.739960,176.223633 297.752625,177.657944 288.612579,181.362396 
	C285.463745,182.638596 282.442169,184.622879 279.878479,186.871948 
	C273.257233,192.680573 266.923798,198.817291 260.144287,205.131363 
	C256.980927,201.764420 253.949539,198.537903 250.641357,195.016800 
	C253.356934,192.027954 255.771164,189.093567 258.478729,186.460876 
	C261.869446,183.163986 260.922943,180.862457 257.376160,178.552979 
	C255.192093,177.130814 253.282532,175.287048 251.180801,173.228607 
z"/>
</svg>